<svg width="251" height="92" viewBox="0 0 251 92" fill="none" xmlns="http://www.w3.org/2000/svg">
<path d="M43.2615 90V71.952H0.3815V52.88C3.1975 48.784 6.09883 43.9627 9.0855 38.416C12.1575 32.784 15.1015 26.7253 17.9175 20.24C20.7335 13.6693 23.0802 7.05599 24.9575 0.399994H50.0455C49.7042 3.21599 48.7655 6.416 47.2295 10C45.6935 13.584 43.7735 17.3813 41.4695 21.392C39.1655 25.4027 36.6482 29.3707 33.9175 33.296C31.1868 37.136 28.4562 40.8053 25.7255 44.304C22.9948 47.7173 20.3922 50.6613 17.9175 53.136H43.2615V34.832C44.3708 33.296 45.5655 31.4187 46.8455 29.2C48.2108 26.9813 49.5762 24.6773 50.9415 22.288C52.3068 19.8133 53.5015 17.424 54.5255 15.12C55.5495 12.7307 56.2748 10.64 56.7015 8.848H67.5815V53.136H79.8695V71.952H67.5815V90H43.2615ZM125.565 91.536C118.311 91.536 112.253 90.4693 107.389 88.336C102.525 86.1173 98.6845 83.0027 95.8685 78.992C93.0525 74.9813 91.0472 70.2027 89.8525 64.656C88.6578 59.024 88.0605 52.7947 88.0605 45.968C88.0605 39.1413 88.6578 32.9547 89.8525 27.408C91.0472 21.776 93.0525 16.9547 95.8685 12.944C98.6845 8.93333 102.525 5.86133 107.389 3.728C112.253 1.50933 118.311 0.399994 125.565 0.399994C132.903 0.399994 138.962 1.50933 143.741 3.728C148.605 5.86133 152.402 8.93333 155.132 12.944C157.949 16.9547 159.954 21.776 161.149 27.408C162.343 32.9547 162.941 39.1413 162.941 45.968C162.941 52.7947 162.343 59.024 161.149 64.656C159.954 70.2027 157.949 74.9813 155.132 78.992C152.402 83.0027 148.605 86.1173 143.741 88.336C138.962 90.4693 132.903 91.536 125.565 91.536ZM125.565 74.256C128.551 74.256 130.941 73.488 132.733 71.952C134.525 70.416 135.805 68.0267 136.573 64.784C137.341 61.5413 137.725 57.36 137.725 52.24V39.568C137.725 34.3627 137.341 30.1813 136.573 27.024C135.805 23.7813 134.525 21.4347 132.733 19.984C130.941 18.448 128.551 17.68 125.565 17.68C122.578 17.68 120.189 18.448 118.397 19.984C116.605 21.4347 115.282 23.7813 114.429 27.024C113.661 30.1813 113.277 34.3627 113.277 39.568V52.24C113.277 57.36 113.661 61.5413 114.429 64.784C115.282 68.0267 116.605 70.416 118.397 71.952C120.189 73.488 122.578 74.256 125.565 74.256ZM214.012 90V71.952H171.132V52.88C173.948 48.784 176.849 43.9627 179.836 38.416C182.908 32.784 185.852 26.7253 188.668 20.24C191.484 13.6693 193.83 7.05599 195.708 0.399994H220.796C220.454 3.21599 219.516 6.416 217.98 10C216.444 13.584 214.524 17.3813 212.22 21.392C209.916 25.4027 207.398 29.3707 204.668 33.296C201.937 37.136 199.206 40.8053 196.476 44.304C193.745 47.7173 191.142 50.6613 188.668 53.136H214.012V34.832C215.121 33.296 216.316 31.4187 217.596 29.2C218.961 26.9813 220.326 24.6773 221.692 22.288C223.057 19.8133 224.252 17.424 225.276 15.12C226.3 12.7307 227.025 10.64 227.452 8.848H238.332V53.136H250.62V71.952H238.332V90H214.012Z" fill="url(#paint0_linear_1093_1985)"/>
<defs>
<linearGradient id="paint0_linear_1093_1985" x1="-2.99781" y1="47.5011" x2="254.001" y2="47.5011" gradientUnits="userSpaceOnUse">
<stop stop-color="#FF5E52"/>
<stop offset="1" stop-color="#C92519"/>
</linearGradient>
</defs>
</svg>
