<svg width="247" height="92" viewBox="0 0 247 92" fill="none" xmlns="http://www.w3.org/2000/svg">
<path d="M39.3415 91.536C30.8082 91.536 23.6402 90.2987 17.8375 87.824C12.1202 85.264 7.76817 81.7653 4.7815 77.328C1.88017 72.8053 0.4295 67.5573 0.4295 61.584H22.9575C22.9575 63.8027 23.4695 65.8507 24.4935 67.728C25.5175 69.6053 27.0535 71.0987 29.1015 72.208C31.1495 73.3173 33.6668 73.872 36.6535 73.872C39.6402 73.872 42.1148 73.3173 44.0775 72.208C46.1255 71.0133 47.6615 69.4347 48.6855 67.472C49.7095 65.5093 50.2215 63.2907 50.2215 60.816C50.2215 58.256 49.7095 55.9947 48.6855 54.032C47.6615 52.0693 46.1255 50.5333 44.0775 49.424C42.1148 48.2293 39.6828 47.632 36.7815 47.632C33.9655 47.632 31.7468 48.0587 30.1255 48.912C28.5042 49.7653 27.2668 50.704 26.4135 51.728C25.6455 52.6667 25.0055 53.4347 24.4935 54.032L4.2695 51.216L7.9815 1.936H68.9095V23.696H27.0535L26.0295 37.008C26.0295 37.008 26.7548 36.5387 28.2055 35.6C29.7415 34.6613 31.9175 33.7227 34.7335 32.784C37.5495 31.76 40.9202 31.248 44.8455 31.248C51.0748 31.248 56.4508 32.4427 60.9735 34.832C65.5815 37.2213 69.1228 40.6773 71.5975 45.2C74.1575 49.6373 75.4375 54.9707 75.4375 61.2C75.4375 66.7467 73.9442 71.824 70.9575 76.432C68.0562 81.04 63.9175 84.7093 58.5415 87.44C53.1655 90.1707 46.7655 91.536 39.3415 91.536ZM123.565 91.536C116.311 91.536 110.253 90.4693 105.389 88.336C100.525 86.1173 96.6845 83.0027 93.8685 78.992C91.0525 74.9813 89.0472 70.2027 87.8525 64.656C86.6578 59.024 86.0605 52.7947 86.0605 45.968C86.0605 39.1413 86.6578 32.9547 87.8525 27.408C89.0472 21.776 91.0525 16.9547 93.8685 12.944C96.6845 8.93333 100.525 5.86133 105.389 3.728C110.253 1.50933 116.311 0.399994 123.565 0.399994C130.903 0.399994 136.962 1.50933 141.741 3.728C146.605 5.86133 150.402 8.93333 153.132 12.944C155.949 16.9547 157.954 21.776 159.149 27.408C160.343 32.9547 160.941 39.1413 160.941 45.968C160.941 52.7947 160.343 59.024 159.149 64.656C157.954 70.2027 155.949 74.9813 153.132 78.992C150.402 83.0027 146.605 86.1173 141.741 88.336C136.962 90.4693 130.903 91.536 123.565 91.536ZM123.565 74.256C126.551 74.256 128.941 73.488 130.733 71.952C132.525 70.416 133.805 68.0267 134.573 64.784C135.341 61.5413 135.725 57.36 135.725 52.24V39.568C135.725 34.3627 135.341 30.1813 134.573 27.024C133.805 23.7813 132.525 21.4347 130.733 19.984C128.941 18.448 126.551 17.68 123.565 17.68C120.578 17.68 118.189 18.448 116.397 19.984C114.605 21.4347 113.282 23.7813 112.429 27.024C111.661 30.1813 111.277 34.3627 111.277 39.568V52.24C111.277 57.36 111.661 61.5413 112.429 64.784C113.282 68.0267 114.605 70.416 116.397 71.952C118.189 73.488 120.578 74.256 123.565 74.256ZM208.94 91.536C201.686 91.536 195.628 90.4693 190.764 88.336C185.9 86.1173 182.06 83.0027 179.244 78.992C176.428 74.9813 174.422 70.2027 173.228 64.656C172.033 59.024 171.436 52.7947 171.436 45.968C171.436 39.1413 172.033 32.9547 173.228 27.408C174.422 21.776 176.428 16.9547 179.244 12.944C182.06 8.93333 185.9 5.86133 190.764 3.728C195.628 1.50933 201.686 0.399994 208.94 0.399994C216.278 0.399994 222.337 1.50933 227.116 3.728C231.98 5.86133 235.777 8.93333 238.507 12.944C241.324 16.9547 243.329 21.776 244.524 27.408C245.718 32.9547 246.316 39.1413 246.316 45.968C246.316 52.7947 245.718 59.024 244.524 64.656C243.329 70.2027 241.324 74.9813 238.507 78.992C235.777 83.0027 231.98 86.1173 227.116 88.336C222.337 90.4693 216.278 91.536 208.94 91.536ZM208.94 74.256C211.926 74.256 214.316 73.488 216.108 71.952C217.9 70.416 219.18 68.0267 219.948 64.784C220.716 61.5413 221.1 57.36 221.1 52.24V39.568C221.1 34.3627 220.716 30.1813 219.948 27.024C219.18 23.7813 217.9 21.4347 216.108 19.984C214.316 18.448 211.926 17.68 208.94 17.68C205.953 17.68 203.564 18.448 201.772 19.984C199.98 21.4347 198.657 23.7813 197.804 27.024C197.036 30.1813 196.652 34.3627 196.652 39.568V52.24C196.652 57.36 197.036 61.5413 197.804 64.784C198.657 68.0267 199.98 70.416 201.772 71.952C203.564 73.488 205.953 74.256 208.94 74.256Z" fill="url(#paint0_linear_1158_1939)"/>
<defs>
<linearGradient id="paint0_linear_1158_1939" x1="-4.99781" y1="47.5011" x2="252.001" y2="47.5011" gradientUnits="userSpaceOnUse">
<stop stop-color="#FF5E52"/>
<stop offset="1" stop-color="#C92519"/>
</linearGradient>
</defs>
</svg>
