<svg width="1200" height="400" viewBox="0 0 1200 400" fill="none" xmlns="http://www.w3.org/2000/svg">
<g clip-path="url(#clip0_346_2152)">
<rect width="1200" height="400" fill="#989898"/>
<path d="M1212.45 663.577C1229.73 674.784 1252.97 669.922 1262.76 651.803C1285.96 608.884 1302.34 562.529 1311.23 514.403C1320.11 466.276 1321.38 417.13 1315.04 368.756C1312.36 348.334 1292.39 335.492 1272.25 339.787C1252.1 344.083 1239.44 363.893 1241.81 384.353C1246.29 423.098 1244.99 462.366 1237.88 500.857C1230.77 539.348 1217.96 576.491 1199.94 611.08C1190.42 629.345 1195.17 652.37 1212.45 663.577Z" fill="#6D6D6D"/>
<path d="M1210.57 192.553C1227.76 181.208 1232.62 157.967 1219.94 141.734C1161.01 66.2776 1080.1 10.478 987.955 -17.6424C883.879 -49.4034 771.983 -43.8645 671.553 -1.98031C571.122 39.9039 488.448 115.51 437.778 211.807C392.916 297.066 375.63 393.816 387.774 488.786C390.386 509.216 410.315 522.122 430.472 517.891C450.63 513.659 463.352 493.887 461.05 473.419C452.284 395.505 467.011 316.428 503.786 246.539C546.372 165.606 615.856 102.063 700.263 66.8608C784.67 31.6591 878.713 27.0039 966.184 53.6976C1041.72 76.7486 1108.27 121.93 1157.46 182.985C1170.38 199.023 1193.38 203.897 1210.57 192.553Z" fill="#6D6D6D"/>
<path d="M666.423 168.251C657.549 156.082 640.408 153.332 628.985 163.147C601.928 186.398 578.634 213.778 559.99 244.324C536.602 282.643 520.991 325.192 514.047 369.544C507.104 413.896 508.964 459.181 519.522 502.813C527.938 537.596 541.75 570.785 560.406 601.192C568.282 614.03 585.444 616.649 597.612 607.775C609.781 598.901 612.327 581.899 604.646 568.944C590.101 544.412 579.263 517.805 572.532 489.987C563.659 453.315 562.096 415.255 567.931 377.98C573.767 340.704 586.888 304.943 606.544 272.738C621.455 248.308 639.906 226.287 661.253 207.374C672.526 197.386 675.297 180.42 666.423 168.251Z" fill="#6D6D6D"/>
<path d="M1018.66 689.079C1026.65 701.846 1043.56 705.803 1055.65 696.821C1111.85 655.071 1154.06 596.911 1176.24 530.046C1201.29 454.525 1199.21 372.631 1170.37 298.477C1141.52 224.324 1087.71 162.556 1018.21 123.819C956.67 89.5225 886.249 75.1819 816.612 82.3855C801.631 83.9352 791.845 98.2759 794.584 113.086C797.322 127.896 811.551 137.544 826.554 136.222C883.665 131.187 941.211 143.346 991.653 171.46C1050.07 204.016 1095.29 255.929 1119.54 318.252C1143.78 380.575 1145.53 449.403 1124.47 512.875C1106.29 567.685 1072.09 615.537 1026.59 650.42C1014.64 659.584 1010.67 676.312 1018.66 689.079Z" fill="#6D6D6D"/>
<path d="M631.616 399.197C620.947 397.957 611.212 405.605 610.826 416.339C609.912 441.764 612.983 467.216 619.962 491.764C626.941 516.312 637.721 539.572 651.874 560.713C657.849 569.638 670.152 571.021 678.572 564.353C686.993 557.686 688.327 545.499 682.488 536.484C671.431 519.413 662.957 500.76 657.375 481.127C651.793 461.494 649.186 441.172 649.608 420.837C649.831 410.099 642.285 400.437 631.616 399.197Z" fill="#6D6D6D"/>
<path d="M953.44 223.773C958.179 214.135 954.231 202.401 944.245 198.445C920.592 189.075 895.58 183.45 870.112 181.811C838.164 179.754 806.123 184.011 775.82 194.338C745.517 204.664 717.544 220.858 693.499 241.995C674.332 258.845 657.959 278.573 644.95 300.436C639.458 309.666 643.496 321.37 653.135 326.109C662.773 330.848 674.351 326.817 679.983 317.67C690.646 300.351 703.849 284.684 719.179 271.208C739.388 253.443 762.897 239.833 788.366 231.154C813.835 222.475 840.763 218.897 867.614 220.626C887.983 221.936 908.005 226.281 927.026 233.485C937.07 237.289 948.701 233.412 953.44 223.773Z" fill="#6D6D6D"/>
<path d="M741.456 618.896C736.046 628.174 739.155 640.159 748.835 644.813C793.832 666.444 844.552 673.806 894.121 665.632C950.109 656.399 1001.12 627.926 1038.37 585.118C1075.62 542.311 1096.76 487.851 1098.17 431.126C1099.41 380.902 1085.11 331.687 1057.46 290.112C1051.52 281.168 1039.22 279.747 1030.77 286.388C1022.33 293.028 1020.96 305.212 1026.77 314.245C1048.89 348.63 1060.3 388.993 1059.28 430.163C1058.1 477.839 1040.33 523.609 1009.03 559.587C977.721 595.564 934.847 619.495 887.793 627.255C847.159 633.955 805.606 628.235 768.493 611.08C758.743 606.574 746.866 609.617 741.456 618.896Z" fill="#6D6D6D"/>
</g>
<defs>
<clipPath id="clip0_346_2152">
<rect width="1200" height="400" fill="white"/>
</clipPath>
</defs>
</svg>
