<svg width="448" height="448" viewBox="0 0 448 448" fill="none" xmlns="http://www.w3.org/2000/svg">
<path d="M396.947 336.157C405.227 341.527 416.362 339.197 421.055 330.515C432.17 309.951 440.016 287.74 444.275 264.681C448.534 241.621 449.138 218.073 446.101 194.895C444.819 185.11 435.251 178.957 425.599 181.015V181.015C415.947 183.073 409.881 192.565 411.015 202.368C413.162 220.933 412.537 239.747 409.131 258.19C405.725 276.633 399.588 294.43 390.952 311.003C386.391 319.755 388.667 330.787 396.947 336.157V336.157Z" fill="#E4E4E4"/>
<path d="M60.4278 349.435C52.5965 355.441 51.0653 366.713 57.6757 374.041C73.3336 391.398 91.6376 406.225 111.942 417.956C137.413 432.672 165.532 442.227 194.696 446.075C223.859 449.923 253.495 447.99 281.911 440.385C304.563 434.322 326.086 424.751 345.711 412.049C353.996 406.687 355.441 395.403 349.435 387.572V387.572C343.43 379.741 332.252 378.341 323.887 383.577C308.046 393.493 290.788 401.013 272.671 405.861C248.789 412.253 223.881 413.878 199.371 410.644C174.861 407.409 151.227 399.379 129.82 387.011C113.581 377.629 98.8644 365.89 86.1378 352.205C79.4171 344.978 68.2592 343.43 60.4278 349.435V349.435Z" fill="#E4E4E4"/>
<path d="M396.048 110.468C404.285 105.032 406.61 93.8964 400.536 86.1186C372.299 49.964 333.533 23.2279 289.382 9.75422C239.514 -5.46387 185.9 -2.80993 137.779 17.2586C89.6586 37.3272 50.0456 73.5532 25.7674 119.693C4.27213 160.545 -4.01023 206.902 1.80817 252.406C3.05987 262.196 12.6086 268.379 22.2669 266.352V266.352C31.9253 264.324 38.0212 254.851 36.9179 245.044C32.7181 207.711 39.7744 169.822 57.3947 136.335C77.7994 97.5565 111.092 67.1102 151.536 50.2435C191.979 33.3768 237.039 31.1463 278.95 43.9364C315.142 54.9811 347.028 76.6294 370.598 105.884C376.79 113.568 387.811 115.904 396.048 110.468V110.468Z" fill="#E4E4E4"/>
<path d="M139.099 345.057C135.028 351.015 136.535 359.196 142.798 362.779C157.635 371.267 173.733 377.394 190.515 380.913C207.297 384.433 224.5 385.29 241.497 383.478C248.672 382.713 253.339 375.827 252.005 368.735V368.735C250.67 361.643 243.838 357.041 236.652 357.697C223.043 358.94 209.301 358.152 195.879 355.337C182.457 352.522 169.555 347.723 157.592 341.117C151.275 337.629 143.17 339.099 139.099 345.057V345.057Z" fill="#E4E4E4"/>
<path d="M135.321 98.8239C131.069 92.9934 122.856 91.6754 117.383 96.3786C104.419 107.519 93.2575 120.638 84.3244 135.274C73.1183 153.634 65.6382 174.021 62.3113 195.272C58.9843 216.523 59.8756 238.221 64.9342 259.128C68.9667 275.793 75.5846 291.696 84.5237 306.265C88.2976 312.416 96.5204 313.671 102.351 309.419V309.419C108.182 305.167 109.402 297.021 105.721 290.814C98.752 279.059 93.5591 266.311 90.3339 252.982C86.0824 235.411 85.3333 217.175 88.1295 199.314C90.9257 181.454 97.2123 164.319 106.63 148.888C113.775 137.183 122.616 126.632 132.844 117.569C138.245 112.784 139.573 104.655 135.321 98.8239V98.8239Z" fill="#E4E4E4"/>
<path d="M304.096 348.376C307.924 354.493 316.023 356.389 321.816 352.085C348.743 332.081 368.97 304.214 379.598 272.176C391.601 235.991 390.605 196.752 376.783 161.221C362.96 125.691 337.177 96.0952 303.876 77.5346C274.392 61.1016 240.65 54.2303 207.283 57.6819C200.105 58.4245 195.417 65.2957 196.729 72.3918V72.3918C198.041 79.4878 204.858 84.1109 212.047 83.4772C239.411 81.0648 266.984 86.8907 291.153 100.361C319.141 115.961 340.811 140.834 352.428 170.696C364.045 200.558 364.882 233.536 354.794 263.948C346.082 290.211 329.696 313.138 307.895 329.853C302.168 334.243 300.267 342.258 304.096 348.376V348.376Z" fill="#E4E4E4"/>
<path d="M118.644 209.481C113.532 208.887 108.867 212.551 108.682 217.694C108.245 229.876 109.716 242.072 113.06 253.834C116.404 265.596 121.569 276.741 128.35 286.87C131.213 291.147 137.108 291.809 141.143 288.614V288.614C145.177 285.42 145.817 279.581 143.019 275.261C137.721 267.082 133.66 258.144 130.986 248.737C128.311 239.33 127.062 229.593 127.265 219.85C127.372 214.704 123.756 210.075 118.644 209.481V209.481Z" fill="#E4E4E4"/>
<path d="M272.844 125.428C275.115 120.809 273.223 115.187 268.438 113.292C257.105 108.802 245.121 106.107 232.918 105.321C217.61 104.336 202.258 106.376 187.738 111.324C173.219 116.271 159.816 124.031 148.295 134.158C139.111 142.232 131.266 151.684 125.033 162.16C122.401 166.583 124.336 172.19 128.954 174.461V174.461C133.573 176.732 139.12 174.8 141.818 170.418C146.928 162.119 153.254 154.613 160.599 148.156C170.282 139.644 181.547 133.122 193.75 128.964C205.953 124.805 218.855 123.091 231.721 123.919C241.481 124.547 251.074 126.629 260.188 130.081C265.001 131.904 270.573 130.046 272.844 125.428V125.428Z" fill="#E4E4E4"/>
<path d="M171.273 314.748C168.681 319.194 170.17 324.936 174.808 327.166C196.369 337.531 220.671 341.058 244.422 337.141C271.248 332.718 295.69 319.075 313.537 298.564C331.384 278.053 341.516 251.959 342.189 224.779C342.785 200.715 335.932 177.134 322.686 157.213C319.836 152.928 313.943 152.247 309.898 155.429V155.429C305.854 158.611 305.196 164.448 307.98 168.776C318.579 185.252 324.047 204.592 323.558 224.318C322.993 247.162 314.477 269.092 299.478 286.331C284.478 303.569 263.935 315.035 241.389 318.753C221.92 321.964 202.01 319.223 184.227 311.004C179.556 308.844 173.865 310.302 171.273 314.748V314.748Z" fill="#E4E4E4"/>
</svg>
