<svg width="485" height="523" viewBox="0 0 485 523" fill="none" xmlns="http://www.w3.org/2000/svg">
<path d="M415.714 456.213C426.951 463.5 442.062 460.339 448.431 448.556C463.517 420.648 474.165 390.504 479.945 359.209C485.724 327.914 486.545 295.956 482.423 264.5C480.683 251.22 467.698 242.87 454.599 245.663C441.5 248.456 433.267 261.338 434.806 274.642C437.72 299.837 436.872 325.371 432.249 350.401C427.627 375.43 419.299 399.583 407.578 422.075C401.388 433.953 404.477 448.925 415.714 456.213Z" fill="#E4E4E4"/>
<path d="M-40.9908 474.234C-51.619 482.384 -53.6971 497.682 -44.7258 507.627C-23.4758 531.183 1.36526 551.306 28.9211 567.226C63.4885 587.197 101.651 600.165 141.23 605.387C180.808 610.61 221.028 607.986 259.593 597.665C290.335 589.438 319.546 576.447 346.179 559.21C357.423 551.932 359.384 536.619 351.234 525.991C343.084 515.363 327.914 513.463 316.561 520.569C295.063 534.026 271.641 544.232 247.054 550.812C214.642 559.486 180.839 561.691 147.575 557.302C114.311 552.913 82.237 542.014 53.1848 525.229C31.1458 512.496 11.1731 496.565 -6.09874 477.992C-15.2196 468.184 -30.3626 466.084 -40.9908 474.234Z" fill="#E4E4E4"/>
<path d="M414.493 149.921C425.672 142.544 428.828 127.431 420.584 116.875C382.262 67.8083 329.652 31.5236 269.732 13.2379C202.055 -7.41525 129.293 -3.81348 63.9862 23.4224C-1.3205 50.6583 -55.0809 99.8222 -88.0299 162.441C-117.202 217.882 -128.442 280.796 -120.546 342.551C-118.847 355.837 -105.888 364.229 -92.7806 361.477C-79.6728 358.726 -71.3998 345.869 -72.8971 332.559C-78.5969 281.894 -69.0204 230.473 -45.1071 185.026C-17.415 132.398 27.7681 91.0781 82.6553 68.1876C137.543 45.2971 198.696 42.27 255.575 59.6279C304.693 74.6173 347.967 103.997 379.955 143.699C388.358 154.129 403.314 157.298 414.493 149.921Z" fill="#E4E4E4"/>
<path d="M65.7785 468.292C60.2533 476.378 62.2984 487.48 70.7992 492.343C90.9348 503.862 112.782 512.177 135.557 516.954C158.333 521.73 181.68 522.893 204.747 520.434C214.485 519.396 220.818 510.051 219.008 500.426C217.197 490.801 207.925 484.556 198.172 485.447C179.703 487.133 161.052 486.063 142.837 482.243C124.621 478.423 107.112 471.91 90.8768 462.945C82.3034 458.211 71.3037 460.205 65.7785 468.292Z" fill="#E4E4E4"/>
<path d="M60.6516 134.118C54.881 126.205 43.7348 124.417 36.3069 130.8C18.7127 145.919 3.56506 163.723 -8.55839 183.586C-23.7666 208.503 -33.9181 236.172 -38.4333 265.012C-42.9485 293.853 -41.7389 323.3 -34.8737 351.673C-29.4009 374.291 -20.4196 395.873 -8.28791 415.646C-3.16618 423.994 7.99337 425.697 15.9063 419.926C23.8192 414.156 25.475 403.1 20.4802 394.676C11.0219 378.723 3.97448 361.422 -0.402596 343.332C-6.17253 319.486 -7.18913 294.737 -3.39433 270.498C0.400467 246.259 8.93234 223.005 21.7142 202.063C31.4104 186.177 43.4083 171.857 57.2896 159.559C64.62 153.064 66.4223 142.031 60.6516 134.118Z" fill="#E4E4E4"/>
<path d="M289.702 472.796C294.898 481.097 305.89 483.671 313.752 477.83C350.295 450.681 377.747 412.862 392.17 369.382C408.46 320.273 407.109 267.02 388.35 218.8C369.591 170.581 334.598 130.415 289.404 105.226C249.39 82.9237 203.598 73.5985 158.314 78.2827C148.573 79.2905 142.209 88.6157 143.99 98.2461C145.771 107.876 155.024 114.151 164.779 113.291C201.917 110.017 239.337 117.923 272.138 136.205C310.122 157.375 339.531 191.132 355.297 231.659C371.063 272.185 372.198 316.942 358.507 358.216C346.685 393.857 324.445 424.973 294.859 447.657C287.087 453.616 284.507 464.494 289.702 472.796Z" fill="#E4E4E4"/>
<path d="M38.0173 284.296C31.0797 283.489 24.749 288.463 24.4982 295.442C23.9041 311.975 25.9007 328.526 30.4392 344.489C34.9776 360.451 41.987 375.577 51.1902 389.324C55.0755 395.128 63.0758 396.027 68.5515 391.691C74.0272 387.356 74.8949 379.431 71.0979 373.569C63.9076 362.468 58.3971 350.339 54.7673 337.572C51.1375 324.805 49.4422 311.591 49.717 298.368C49.8621 291.385 44.9549 285.102 38.0173 284.296Z" fill="#E4E4E4"/>
<path d="M247.289 170.223C250.371 163.956 247.803 156.325 241.31 153.753C225.929 147.66 209.665 144.002 193.104 142.936C172.329 141.599 151.494 144.367 131.789 151.082C112.083 157.797 93.8935 168.328 78.258 182.072C65.7938 193.029 55.1474 205.857 46.6881 220.075C43.1167 226.077 45.7426 233.687 52.0102 236.769C58.2779 239.85 65.8067 237.229 69.4685 231.281C76.4028 220.019 84.9881 209.832 94.9568 201.068C108.098 189.517 123.385 180.666 139.947 175.023C156.508 169.379 174.019 167.053 191.479 168.176C204.725 169.029 217.744 171.854 230.113 176.538C236.644 179.012 244.207 176.491 247.289 170.223Z" fill="#E4E4E4"/>
<path d="M109.443 427.158C105.925 433.192 107.946 440.985 114.241 444.011C143.501 458.078 176.482 462.865 208.716 457.549C245.123 451.546 278.295 433.03 302.515 405.194C326.736 377.358 340.487 341.945 341.4 305.058C342.209 272.399 332.908 240.396 314.931 213.361C311.064 207.545 303.066 206.621 297.577 210.939C292.088 215.257 291.196 223.18 294.974 229.054C309.359 251.414 316.778 277.66 316.116 304.432C315.348 335.434 303.791 365.197 283.435 388.592C263.078 411.987 235.199 427.548 204.601 432.594C178.178 436.951 151.157 433.231 127.024 422.076C120.684 419.146 112.961 421.125 109.443 427.158Z" fill="#E4E4E4"/>
</svg>
