<svg width="1093" height="810" viewBox="0 0 1093 810" fill="none" xmlns="http://www.w3.org/2000/svg">
<path d="M1025.15 868.155C1046.54 882.023 1075.29 876.006 1087.41 853.585C1116.12 800.476 1136.38 743.115 1147.38 683.561C1158.38 624.008 1159.94 563.193 1152.1 503.334C1148.78 478.062 1124.07 462.172 1099.15 467.487C1074.22 472.802 1058.55 497.315 1061.48 522.634C1067.03 570.578 1065.41 619.169 1056.62 666.799C1047.82 714.429 1031.97 760.391 1009.67 803.193C997.89 825.795 1003.77 854.287 1025.15 868.155Z" fill="#3D5D83"/>
<path d="M1022.83 285.293C1044.1 271.256 1050.11 242.496 1034.42 222.409C961.494 129.037 861.379 59.9882 747.354 25.1912C618.567 -14.1109 480.103 -7.25691 355.827 44.572C231.551 96.4008 129.247 189.958 66.5467 309.119C11.0332 414.622 -10.3568 534.343 4.66976 651.862C7.90238 677.143 32.5628 693.114 57.5063 687.877C82.4499 682.641 98.1931 658.175 95.3438 632.847C84.4973 536.433 102.721 438.581 148.227 352.098C200.924 251.948 286.906 173.318 391.354 129.758C495.802 86.1985 612.174 80.438 720.414 113.47C813.883 141.994 896.232 197.902 957.103 273.454C973.094 293.301 1001.56 299.331 1022.83 285.293Z" fill="#3D5D83"/>
<path d="M349.48 255.222C338.498 240.164 317.288 236.76 303.153 248.907C269.672 277.677 240.846 311.559 217.776 349.357C188.835 396.774 169.517 449.426 160.925 504.308C152.333 559.191 154.634 615.228 167.699 669.22C178.113 712.261 195.204 753.331 218.291 790.958C228.037 806.843 249.273 810.085 264.331 799.104C279.389 788.122 282.54 767.084 273.035 751.053C255.036 720.696 241.625 687.772 233.296 653.348C222.316 607.97 220.381 560.873 227.603 514.747C234.824 468.621 251.06 424.37 275.383 384.518C293.835 354.287 316.666 327.038 343.082 303.634C357.031 291.275 360.461 270.28 349.48 255.222Z" fill="#3D5D83"/>
<path d="M785.354 899.712C795.241 915.51 816.159 920.407 831.119 909.292C900.66 857.629 952.899 785.66 980.345 702.919C1011.34 609.467 1008.77 508.129 973.076 416.368C937.378 324.608 870.79 248.175 784.786 200.24C708.641 157.801 621.5 140.055 535.328 148.969C516.79 150.887 504.681 168.632 508.07 186.959C511.458 205.285 529.066 217.224 547.631 215.588C618.301 209.358 689.511 224.403 751.929 259.192C824.211 299.479 880.176 363.718 910.178 440.838C940.18 517.958 942.341 603.128 916.288 681.671C893.789 749.495 851.469 808.708 795.167 851.874C780.377 863.214 775.467 883.913 785.354 899.712Z" fill="#3D5D83"/>
<path d="M306.408 541.002C293.206 539.468 281.159 548.932 280.682 562.214C279.551 593.675 283.351 625.171 291.987 655.547C300.624 685.924 313.962 714.707 331.476 740.867C338.869 751.912 354.094 753.622 364.514 745.372C374.934 737.121 376.585 722.041 369.359 710.886C355.676 689.762 345.19 666.679 338.283 642.385C331.376 618.09 328.15 592.943 328.672 567.78C328.948 554.493 319.61 542.536 306.408 541.002Z" fill="#3D5D83"/>
<path d="M704.644 323.927C710.509 312 705.622 297.48 693.266 292.585C663.997 280.99 633.047 274.029 601.532 272.001C561.998 269.456 522.35 274.724 484.851 287.502C447.353 300.281 412.739 320.32 382.985 346.475C359.266 367.326 339.006 391.737 322.908 418.792C316.112 430.214 321.109 444.696 333.036 450.56C344.963 456.425 359.29 451.436 366.259 440.118C379.454 418.687 395.792 399.3 414.762 382.624C439.769 360.641 468.86 343.799 500.376 333.06C531.892 322.32 565.214 317.893 598.44 320.032C623.646 321.654 648.422 327.03 671.959 335.944C684.388 340.652 698.78 335.854 704.644 323.927Z" fill="#3D5D83"/>
<path d="M442.328 812.865C435.634 824.346 439.48 839.176 451.459 844.935C507.14 871.703 569.902 880.812 631.241 870.697C700.522 859.272 763.647 824.038 809.737 771.067C855.828 718.096 881.997 650.706 883.734 580.511C885.272 518.363 867.573 457.463 833.365 406.017C826.006 394.949 810.786 393.19 800.34 401.408C789.894 409.625 788.197 424.701 795.387 435.879C822.76 478.429 836.879 528.376 835.619 579.321C834.158 638.316 812.165 694.954 773.428 739.474C734.691 783.993 681.637 813.606 623.41 823.208C573.129 831.5 521.71 824.421 475.784 803.193C463.72 797.617 449.023 801.383 442.328 812.865Z" fill="#3D5D83"/>
</svg>
