<svg width="816" height="400" viewBox="0 0 816 400" fill="none" xmlns="http://www.w3.org/2000/svg">
<path d="M828.45 663.577C845.731 674.784 868.969 669.922 878.764 651.803C901.963 608.884 918.338 562.529 927.226 514.403C936.114 466.276 937.376 417.13 931.037 368.756C928.361 348.334 908.392 335.492 888.248 339.787C868.104 344.083 855.443 363.893 857.81 384.353C862.291 423.098 860.987 462.366 853.878 500.857C846.77 539.348 833.963 576.491 815.938 611.08C806.419 629.345 811.169 652.37 828.45 663.577Z" fill="#6D6D6D"/>
<path d="M826.573 192.553C843.764 181.208 848.617 157.967 835.939 141.734C777.007 66.2776 696.101 10.478 603.955 -17.6424C499.879 -49.4034 387.983 -43.8645 287.553 -1.98031C187.122 39.9039 104.448 115.51 53.778 211.807C8.91617 297.066 -8.36957 393.816 3.77375 488.786C6.3861 509.216 26.3148 522.122 46.4723 517.891C66.6297 513.659 79.3523 493.887 77.0497 473.419C68.2843 395.505 83.0114 316.428 119.786 246.539C162.372 165.606 231.856 102.063 316.263 66.8608C400.67 31.6591 494.713 27.0039 582.184 53.6976C657.719 76.7486 724.267 121.93 773.458 182.985C786.381 199.023 809.381 203.897 826.573 192.553Z" fill="#6D6D6D"/>
<path d="M282.423 168.251C273.549 156.082 256.408 153.332 244.985 163.147C217.928 186.398 194.634 213.778 175.99 244.324C152.602 282.643 136.991 325.192 130.047 369.544C123.104 413.896 124.964 459.181 135.522 502.813C143.938 537.596 157.75 570.785 176.406 601.192C184.282 614.03 201.444 616.649 213.612 607.775C225.781 598.901 228.327 581.899 220.646 568.944C206.101 544.412 195.263 517.805 188.532 489.987C179.659 453.315 178.096 415.255 183.931 377.98C189.767 340.704 202.888 304.943 222.544 272.738C237.455 248.308 255.906 226.287 277.253 207.374C288.526 197.386 291.297 180.42 282.423 168.251Z" fill="#6D6D6D"/>
<path d="M634.664 689.079C642.654 701.846 659.558 705.803 671.648 696.821C727.846 655.071 770.061 596.911 792.241 530.046C817.292 454.525 815.215 372.631 786.367 298.477C757.518 224.324 703.706 162.556 634.205 123.819C572.67 89.5225 502.249 75.1819 432.612 82.3855C417.631 83.9352 407.845 98.2759 410.584 113.086C413.322 127.896 427.551 137.544 442.554 136.222C499.665 131.187 557.211 143.346 607.653 171.46C666.065 204.016 711.292 255.929 735.537 318.252C759.783 380.575 761.529 449.403 740.474 512.875C722.293 567.685 688.093 615.537 642.594 650.42C630.642 659.584 626.674 676.312 634.664 689.079Z" fill="#6D6D6D"/>
<path d="M247.616 399.197C236.947 397.957 227.212 405.605 226.826 416.339C225.912 441.764 228.983 467.216 235.962 491.764C242.941 516.312 253.721 539.572 267.874 560.713C273.849 569.638 286.152 571.021 294.572 564.353C302.993 557.686 304.327 545.499 298.488 536.484C287.431 519.413 278.957 500.76 273.375 481.127C267.793 461.494 265.186 441.172 265.608 420.837C265.831 410.099 258.285 400.437 247.616 399.197Z" fill="#6D6D6D"/>
<path d="M569.44 223.773C574.179 214.135 570.231 202.401 560.245 198.445C536.592 189.075 511.58 183.45 486.112 181.811C454.164 179.754 422.123 184.011 391.82 194.338C361.517 204.664 333.544 220.858 309.499 241.995C290.332 258.845 273.959 278.573 260.95 300.436C255.458 309.666 259.496 321.37 269.135 326.109C278.773 330.848 290.351 326.817 295.983 317.67C306.646 300.351 319.849 284.684 335.179 271.208C355.388 253.443 378.897 239.833 404.366 231.154C429.835 222.475 456.763 218.897 483.614 220.626C503.983 221.936 524.005 226.281 543.026 233.485C553.07 237.289 564.701 233.412 569.44 223.773Z" fill="#6D6D6D"/>
<path d="M357.456 618.896C352.046 628.174 355.155 640.159 364.835 644.813C409.832 666.444 460.552 673.806 510.121 665.632C566.109 656.399 617.121 627.926 654.368 585.118C691.615 542.311 712.763 487.851 714.167 431.126C715.41 380.902 701.107 331.687 673.463 290.112C667.515 281.168 655.216 279.747 646.775 286.388C638.333 293.028 636.961 305.212 642.772 314.245C664.892 348.63 676.303 388.993 675.284 430.163C674.104 477.839 656.33 523.609 625.026 559.587C593.721 595.564 550.847 619.495 503.793 627.255C463.159 633.955 421.606 628.235 384.493 611.08C374.743 606.574 362.866 609.617 357.456 618.896Z" fill="#6D6D6D"/>
</svg>
