<svg width="339" height="419" viewBox="0 0 339 419" fill="none" xmlns="http://www.w3.org/2000/svg">
<path d="M59.3488 322.196C51.6573 328.094 50.1534 339.165 56.6458 346.362C72.0241 363.409 90.0012 377.971 109.943 389.493C134.959 403.946 162.576 413.33 191.219 417.109C219.861 420.889 248.968 418.99 276.877 411.521C299.124 405.567 320.263 396.166 339.537 383.691C347.674 378.425 349.094 367.343 343.196 359.651C337.297 351.96 326.319 350.585 318.104 355.728C302.546 365.466 285.596 372.852 267.802 377.614C244.346 383.891 219.884 385.487 195.811 382.311C171.738 379.134 148.527 371.247 127.502 359.1C111.553 349.886 97.099 338.356 84.5996 324.915C77.999 317.817 67.0402 316.297 59.3488 322.196Z" fill="#B30D17"/>
<path d="M388.975 87.4954C397.065 82.1569 399.349 71.2197 393.383 63.5808C365.65 28.0718 327.577 1.81315 284.214 -11.42C235.237 -26.3663 182.58 -23.7598 135.319 -4.04956C88.0575 15.6606 49.152 51.2398 25.3073 96.5561C4.19585 136.678 -3.93862 182.208 1.77588 226.899C3.00522 236.513 12.3834 242.587 21.8693 240.596C31.3552 238.604 37.3423 229.3 36.2587 219.668C32.1338 183.002 39.0642 145.79 56.3698 112.901C76.4102 74.8144 109.108 44.9118 148.83 28.3463C188.551 11.7808 232.806 9.5901 273.969 22.1518C309.515 32.9993 340.831 54.261 363.98 82.9928C370.062 90.5405 380.885 92.8339 388.975 87.4954Z" fill="#B30D17"/>
<path d="M136.615 317.895C132.617 323.747 134.097 331.781 140.249 335.301C154.821 343.637 170.631 349.655 187.113 353.111C203.595 356.568 220.491 357.409 237.185 355.63C244.232 354.879 248.815 348.116 247.505 341.15C246.194 334.185 239.485 329.666 232.426 330.31C219.061 331.531 205.563 330.756 192.381 327.992C179.199 325.227 166.528 320.513 154.779 314.026C148.574 310.6 140.614 312.043 136.615 317.895Z" fill="#B30D17"/>
<path d="M132.905 76.0592C128.729 70.3328 120.663 69.0384 115.287 73.6576C102.555 84.5989 91.5925 97.4837 82.8189 111.858C71.813 129.891 64.4665 149.914 61.1989 170.785C57.9313 191.657 58.8067 212.967 63.775 233.5C67.7355 249.869 74.2352 265.487 83.0147 279.796C86.7212 285.837 94.7972 287.07 100.524 282.894C106.25 278.718 107.448 270.717 103.834 264.621C96.9889 253.076 91.8887 240.555 88.7211 227.464C84.5455 210.207 83.8099 192.297 86.5561 174.755C89.3023 157.214 95.4767 140.385 104.727 125.23C111.744 113.733 120.426 103.37 130.472 94.4699C135.777 89.7699 137.081 81.7857 132.905 76.0592Z" fill="#B30D17"/>
<path d="M298.666 321.155C302.426 327.163 310.38 329.025 316.07 324.798C342.516 305.151 362.382 277.781 372.819 246.316C384.608 210.777 383.631 172.238 370.055 137.342C356.479 102.446 331.156 73.3792 298.45 55.1501C269.492 39.0105 236.353 32.262 203.582 35.6519C196.532 36.3812 191.927 43.1297 193.216 50.0991C194.505 57.0684 201.201 61.609 208.261 60.9866C235.136 58.6173 262.217 64.3391 285.954 77.5691C313.443 92.8899 334.726 117.319 346.135 146.648C357.545 175.976 358.367 208.366 348.459 238.235C339.903 264.028 323.809 286.547 302.397 302.962C296.773 307.275 294.906 315.147 298.666 321.155Z" fill="#B30D17"/>
<path d="M116.525 184.74C111.504 184.156 106.923 187.756 106.741 192.807C106.312 204.771 107.756 216.749 111.041 228.301C114.325 239.853 119.398 250.799 126.058 260.747C128.87 264.948 134.66 265.598 138.622 262.46C142.585 259.323 143.213 253.588 140.465 249.346C135.261 241.312 131.274 232.534 128.647 223.295C126.02 214.056 124.793 204.493 124.992 194.924C125.097 189.87 121.546 185.323 116.525 184.74Z" fill="#B30D17"/>
<path d="M267.972 102.187C270.202 97.6517 268.344 92.1299 263.645 90.2683C252.514 85.8587 240.744 83.2116 228.759 82.4403C213.724 81.4727 198.646 83.4759 184.386 88.3354C170.125 93.1949 156.962 100.816 145.647 110.763C136.627 118.692 128.922 127.975 122.8 138.264C120.215 142.608 122.116 148.115 126.652 150.345C131.187 152.576 136.636 150.678 139.286 146.374C144.304 138.224 150.517 130.851 157.731 124.51C167.241 116.15 178.305 109.745 190.29 105.661C202.275 101.577 214.947 99.8929 227.583 100.706C237.169 101.323 246.591 103.368 255.542 106.758C260.268 108.548 265.742 106.723 267.972 102.187Z" fill="#B30D17"/>
<path d="M168.215 288.127C165.669 292.494 167.131 298.134 171.687 300.324C192.862 310.503 216.73 313.968 240.057 310.121C266.404 305.776 290.41 292.377 307.938 272.232C325.466 252.088 335.418 226.46 336.079 199.765C336.663 176.13 329.933 152.97 316.923 133.406C314.125 129.197 308.337 128.528 304.364 131.653C300.392 134.778 299.746 140.511 302.481 144.762C312.89 160.944 318.26 179.938 317.78 199.312C317.225 221.748 308.861 243.287 294.13 260.217C279.398 277.148 259.222 288.41 237.079 292.061C217.957 295.214 198.403 292.522 180.938 284.45C176.35 282.329 170.761 283.761 168.215 288.127Z" fill="#B30D17"/>
</svg>
