<svg width="594" height="810" viewBox="0 0 594 810" fill="none" xmlns="http://www.w3.org/2000/svg">
<path fill-rule="evenodd" clip-rule="evenodd" d="M320.043 9.14625L786.855 278.659C818.731 297.055 829.755 338.189 811.345 370.065L741.015 491.882H0L228.637 33.6367C245.064 0.698939 288.167 -9.24946 320.043 9.14625Z" fill="#D9D9D9"/>
<path d="M741.024 435.086C741.338 452.504 741.345 471.43 741.052 491.886H741.024V435.086ZM194.354 491.886C197.412 567.507 223.473 620.579 272.788 650.871C302.612 669.895 338.545 679.284 380.817 679.284C425.435 679.284 461.597 667.779 489.544 644.999C504.805 632.552 518.188 615.42 529.938 593.338H731.194C726.021 637.955 701.594 683.047 658.631 729.075C591.464 802.106 497.53 838.507 376.824 838.507C277.012 838.507 188.957 807.747 112.868 746.221C45.2961 691.746 7.73659 606.916 0.00830078 491.886H194.354Z" fill="#D9D9D9"/>
</svg>
