<svg width="935" height="671" viewBox="0 0 935 671" fill="none" xmlns="http://www.w3.org/2000/svg">
<path d="M828.45 701.577C845.731 712.784 868.969 707.922 878.764 689.803C901.963 646.884 918.338 600.529 927.226 552.403C936.114 504.276 937.376 455.13 931.037 406.756C928.361 386.334 908.392 373.492 888.248 377.787C868.104 382.083 855.443 401.893 857.81 422.353C862.291 461.098 860.987 500.366 853.878 538.857C846.77 577.348 833.963 614.491 815.938 649.08C806.419 667.345 811.169 690.37 828.45 701.577Z" fill="#B30D17"/>
<path d="M826.573 230.553C843.764 219.208 848.617 195.967 835.939 179.734C777.007 104.278 696.101 48.478 603.955 20.3576C499.879 -11.4034 387.983 -5.86448 287.553 36.0197C187.122 77.9039 104.448 153.51 53.778 249.807C8.91617 335.066 -8.36957 431.816 3.77375 526.786C6.3861 547.216 26.3148 560.122 46.4723 555.891C66.6297 551.659 79.3523 531.887 77.0497 511.419C68.2843 433.505 83.0114 354.428 119.786 284.539C162.372 203.606 231.856 140.063 316.263 104.861C400.67 69.6591 494.713 65.0039 582.184 91.6976C657.719 114.749 724.267 159.93 773.458 220.985C786.381 237.023 809.381 241.897 826.573 230.553Z" fill="#B30D17"/>
<path d="M282.423 206.251C273.549 194.082 256.408 191.332 244.985 201.147C217.928 224.398 194.634 251.778 175.99 282.324C152.602 320.643 136.991 363.192 130.047 407.544C123.104 451.896 124.964 497.181 135.522 540.813C143.938 575.596 157.75 608.785 176.406 639.192C184.282 652.03 201.444 654.649 213.612 645.775C225.781 636.901 228.327 619.899 220.646 606.944C206.101 582.412 195.263 555.805 188.532 527.987C179.659 491.315 178.096 453.255 183.931 415.98C189.767 378.704 202.888 342.943 222.544 310.738C237.455 286.308 255.906 264.287 277.253 245.374C288.526 235.386 291.297 218.42 282.423 206.251Z" fill="#B30D17"/>
<path d="M634.664 727.079C642.654 739.846 659.558 743.803 671.648 734.821C727.846 693.071 770.061 634.911 792.241 568.046C817.292 492.525 815.215 410.631 786.367 336.477C757.518 262.324 703.706 200.556 634.205 161.819C572.67 127.523 502.249 113.182 432.612 120.385C417.631 121.935 407.845 136.276 410.584 151.086C413.322 165.896 427.551 175.544 442.554 174.222C499.665 169.187 557.211 181.346 607.653 209.46C666.065 242.016 711.292 293.929 735.537 356.252C759.783 418.575 761.529 487.403 740.474 550.875C722.293 605.685 688.093 653.537 642.594 688.42C630.642 697.584 626.674 714.312 634.664 727.079Z" fill="#B30D17"/>
<path d="M247.616 437.197C236.947 435.957 227.212 443.605 226.826 454.339C225.912 479.764 228.983 505.216 235.962 529.764C242.942 554.312 253.721 577.572 267.874 598.713C273.849 607.638 286.152 609.021 294.572 602.353C302.993 595.686 304.328 583.499 298.488 574.484C287.431 557.413 278.957 538.76 273.375 519.127C267.793 499.494 265.186 479.172 265.608 458.837C265.831 448.099 258.285 438.437 247.616 437.197Z" fill="#B30D17"/>
<path d="M569.44 261.773C574.179 252.135 570.231 240.401 560.245 236.445C536.593 227.075 511.581 221.45 486.112 219.811C454.164 217.754 422.123 222.011 391.82 232.338C361.517 242.664 333.544 258.858 309.499 279.995C290.332 296.845 273.959 316.573 260.95 338.436C255.458 347.666 259.496 359.37 269.135 364.109C278.773 368.848 290.351 364.817 295.983 355.67C306.646 338.351 319.849 322.684 335.179 309.208C355.388 291.443 378.898 277.833 404.366 269.154C429.835 260.475 456.763 256.897 483.614 258.626C503.984 259.936 524.006 264.281 543.026 271.485C553.071 275.289 564.701 271.412 569.44 261.773Z" fill="#B30D17"/>
<path d="M357.456 656.896C352.046 666.174 355.155 678.159 364.835 682.813C409.832 704.444 460.552 711.806 510.121 703.632C566.109 694.399 617.121 665.926 654.368 623.118C691.615 580.311 712.763 525.851 714.167 469.126C715.41 418.902 701.107 369.687 673.463 328.112C667.516 319.168 655.216 317.747 646.775 324.388C638.333 331.028 636.961 343.212 642.772 352.245C664.893 386.63 676.303 426.993 675.284 468.163C674.104 515.839 656.33 561.609 625.026 597.587C593.721 633.564 550.847 657.495 503.793 665.255C463.159 671.955 421.606 666.235 384.493 649.08C374.743 644.574 362.866 647.617 357.456 656.896Z" fill="#B30D17"/>
</svg>
