<svg width="120" height="120" viewBox="0 0 120 120" fill="none" xmlns="http://www.w3.org/2000/svg">
<path d="M106.325 90.042C108.543 91.4803 111.525 90.8563 112.782 88.5308C115.76 83.0226 117.862 77.0732 119.002 70.8966C120.143 64.7199 120.305 58.4124 119.491 52.204C119.148 49.583 116.585 47.9348 114 48.4861C111.414 49.0373 109.789 51.5798 110.093 54.2057C110.668 59.1784 110.501 64.218 109.589 69.1581C108.676 74.0981 107.033 78.8651 104.719 83.3043C103.498 85.6486 104.107 88.6037 106.325 90.042Z" fill="#3D5D83"/>
<path d="M16.186 93.5988C14.0884 95.2074 13.6782 98.2267 15.4489 100.189C19.6429 104.839 24.5458 108.81 29.9844 111.953C36.8069 115.894 44.339 118.454 52.1506 119.484C59.9622 120.515 67.9003 119.997 75.5118 117.96C81.5793 116.336 87.3446 113.772 92.6011 110.37C94.8203 108.934 95.2074 105.912 93.5988 103.814C91.9902 101.716 88.9962 101.341 86.7555 102.744C82.5124 105.4 77.8897 107.414 73.0369 108.713C66.6399 110.425 59.9682 110.86 53.4029 109.994C46.8377 109.127 40.5073 106.977 34.7733 103.664C30.4235 101.151 26.4815 98.0062 23.0726 94.3405C21.2724 92.4048 18.2837 91.9902 16.186 93.5988Z" fill="#3D5D83"/>
<path d="M106.084 29.5896C108.291 28.1337 108.913 25.1508 107.286 23.0675C99.7228 13.3832 89.3392 6.22177 77.5129 2.61274C64.1556 -1.46354 49.7947 -0.752661 36.9052 4.62285C24.0157 9.99836 13.4051 19.7018 6.90199 32.0607C1.14432 43.0031 -1.07417 55.4202 0.484331 67.6088C0.819607 70.2309 3.3773 71.8874 5.96436 71.3442C8.55141 70.8011 10.1842 68.2636 9.88873 65.6367C8.76377 55.637 10.6539 45.4881 15.3736 36.5184C20.8391 26.1312 29.7569 17.9759 40.5899 13.4581C51.4229 8.94021 63.4926 8.34275 74.7188 11.7687C84.4131 14.7271 92.954 20.5257 99.2674 28.3617C100.926 30.4201 103.878 31.0456 106.084 29.5896Z" fill="#3D5D83"/>
</svg>
