<?xml version="1.0" encoding="UTF-8"?>
<svg id="Layer_1" data-name="Layer 1" xmlns="http://www.w3.org/2000/svg" viewBox="0 0 935 739.69">
  <defs>
    <style>
      .cls-1 {
        fill: #e5e5e5;
      }
    </style>
  </defs>
  <path class="cls-1" d="m828.45,701.58c17.28,11.21,40.52,6.34,50.31-11.77,23.2-42.92,39.57-89.27,48.46-137.4,8.89-48.13,10.15-97.27,3.81-145.65-2.68-20.42-22.64-33.26-42.79-28.97-20.14,4.3-32.8,24.11-30.44,44.57,4.48,38.74,3.18,78.01-3.93,116.5-7.11,38.49-19.91,75.63-37.94,110.22-9.52,18.26-4.77,41.29,12.51,52.5Z"/>
  <path class="cls-1" d="m826.57,230.55c17.19-11.35,22.04-34.59,9.37-50.82-58.93-75.46-139.84-131.26-231.98-159.38-104.08-31.76-215.97-26.22-316.4,15.66-100.43,41.88-183.11,117.49-233.78,213.79C8.92,335.07-8.37,431.82,3.77,526.79c2.61,20.43,22.54,33.34,42.7,29.1,20.16-4.23,32.88-24,30.58-44.47-8.77-77.91,5.96-156.99,42.74-226.88,42.59-80.93,112.07-144.48,196.48-179.68,84.41-35.2,178.45-39.86,265.92-13.16,75.53,23.05,142.08,68.23,191.27,129.29,12.92,16.04,35.92,20.91,53.11,9.57Z"/>
  <path class="cls-1" d="m282.42,206.25c-8.87-12.17-26.02-14.92-37.44-5.1-27.06,23.25-50.35,50.63-68.99,81.18-23.39,38.32-39,80.87-45.94,125.22-6.94,44.35-5.08,89.64,5.48,133.27,8.42,34.78,22.23,67.97,40.88,98.38,7.88,12.84,25.04,15.46,37.21,6.58,12.17-8.87,14.71-25.88,7.03-38.83-14.54-24.53-25.38-51.14-32.11-78.96-8.87-36.67-10.44-74.73-4.6-112.01,5.84-37.28,18.96-73.04,38.61-105.24,14.91-24.43,33.36-46.45,54.71-65.36,11.27-9.99,14.04-26.95,5.17-39.12Z"/>
  <path class="cls-1" d="m634.66,727.08c7.99,12.77,24.89,16.72,36.98,7.74,56.2-41.75,98.41-99.91,120.59-166.77,25.05-75.52,22.97-157.42-5.87-231.57-28.85-74.15-82.66-135.92-152.16-174.66-61.54-34.3-131.96-48.64-201.59-41.43-14.98,1.55-24.77,15.89-22.03,30.7,2.74,14.81,16.97,24.46,31.97,23.14,57.11-5.04,114.66,7.12,165.1,35.24,58.41,32.56,103.64,84.47,127.88,146.79,24.25,62.32,25.99,131.15,4.94,194.62-18.18,54.81-52.38,102.66-97.88,137.54-11.95,9.16-15.92,25.89-7.93,38.66Z"/>
  <path class="cls-1" d="m247.62,437.2c-10.67-1.24-20.4,6.41-20.79,17.14-.91,25.43,2.16,50.88,9.14,75.42,6.98,24.55,17.76,47.81,31.91,68.95,5.98,8.92,18.28,10.31,26.7,3.64,8.42-6.67,9.76-18.85,3.92-27.87-11.06-17.07-19.53-35.72-25.11-55.36-5.58-19.63-8.19-39.96-7.77-60.29.22-10.74-7.32-20.4-17.99-21.64Z"/>
  <path class="cls-1" d="m569.44,261.77c4.74-9.64.79-21.37-9.2-25.33-23.65-9.37-48.66-15-74.13-16.63-31.95-2.06-63.99,2.2-94.29,12.53-30.3,10.33-58.28,26.52-82.32,47.66-19.17,16.85-35.54,36.58-48.55,58.44-5.49,9.23-1.45,20.93,8.18,25.67,9.64,4.74,21.22.71,26.85-8.44,10.66-17.32,23.87-32.99,39.2-46.46,20.21-17.77,43.72-31.38,69.19-40.05,25.47-8.68,52.4-12.26,79.25-10.53,20.37,1.31,40.39,5.65,59.41,12.86,10.04,3.8,21.67-.07,26.41-9.71Z"/>
  <path class="cls-1" d="m357.46,656.9c-5.41,9.28-2.3,21.26,7.38,25.92,45,21.63,95.72,28.99,145.29,20.82,55.99-9.23,107-37.71,144.25-80.51,37.25-42.81,58.4-97.27,59.8-153.99,1.24-50.22-13.06-99.44-40.7-141.01-5.95-8.94-18.25-10.36-26.69-3.72-8.44,6.64-9.81,18.82-4,27.86,22.12,34.39,33.53,74.75,32.51,115.92-1.18,47.68-18.95,93.45-50.26,129.42-31.3,35.98-74.18,59.91-121.23,67.67-40.63,6.7-82.19.98-119.3-16.17-9.75-4.51-21.63-1.46-27.04,7.82Z"/>
</svg>