<svg width="28" height="28" viewBox="0 0 28 28" fill="none" xmlns="http://www.w3.org/2000/svg">
<path fill-rule="evenodd" clip-rule="evenodd" d="M17.8569 1.64951H22.5065L24.4819 1.43604C23.8042 1.90824 22.4514 4.23727 22.093 5.0346C21.8292 5.61518 21.5916 6.32348 21.3806 7.16147C21.1692 7.99947 21.0636 8.68793 21.0636 9.22473H19.1501C19.2073 7.54858 19.7574 5.80652 20.8064 3.99642C21.4839 2.87461 22.0513 2.09171 22.5065 1.64951H17.8569Z" fill="url(#paint0_linear_64_82)"/>
<path fill-rule="evenodd" clip-rule="evenodd" d="M17.8569 1.64959C18.7779 1.64959 23.9878 1.91782 24.4819 1.43611V0H17.8699L17.8569 1.64959Z" fill="url(#paint1_linear_64_82)"/>
<path d="M25.1716 3.89502V4.3092H24.4718V6.23408H23.9798V4.3092H23.2769V3.89502H25.1716Z" fill="#F65549"/>
<path d="M25.4556 6.23408V3.89502H25.9396V4.78685H26.8537V3.89502H27.3393V6.23408H26.8537V5.18991H25.9396V6.23408H25.4556Z" fill="#F65549"/>
<path fill-rule="evenodd" clip-rule="evenodd" d="M7.51636 8.52193L18.4796 14.8516C19.2283 15.2836 19.4872 16.2496 19.0548 16.9983L17.4031 19.8592H0L5.36965 9.0971C5.75544 8.32354 6.76772 8.0899 7.51636 8.52193V8.52193Z" fill="url(#paint2_linear_64_82)"/>
<path d="M17.4031 18.5254C17.4105 18.9345 17.4106 19.379 17.4037 19.8594H17.4031V18.5254ZM4.56429 19.8594C4.6361 21.6354 5.24815 22.8818 6.40636 23.5932C7.10679 24.04 7.95069 24.2605 8.94346 24.2605C9.99132 24.2605 10.8406 23.9903 11.4969 23.4553C11.8554 23.163 12.1697 22.7606 12.4456 22.242H17.1722C17.0507 23.2899 16.477 24.3489 15.468 25.4299C13.8906 27.145 11.6845 27.9999 8.84967 27.9999C6.50555 27.9999 4.43755 27.2775 2.65056 25.8325C1.0636 24.5532 0.181502 22.5609 0 19.8594H4.56429Z" fill="url(#paint3_linear_64_82)"/>
<defs>
<linearGradient id="paint0_linear_64_82" x1="19.8564" y1="1.73198" x2="22.4822" y2="8.92879" gradientUnits="userSpaceOnUse">
<stop stop-color="#BD0D00"/>
<stop offset="1" stop-color="#C92519"/>
</linearGradient>
<linearGradient id="paint1_linear_64_82" x1="17.8569" y1="0.862094" x2="24.4819" y2="0.862094" gradientUnits="userSpaceOnUse">
<stop stop-color="#C92519"/>
<stop offset="1" stop-color="#FF5E52"/>
</linearGradient>
<linearGradient id="paint2_linear_64_82" x1="0.000163959" y1="14.0833" x2="19.2643" y2="14.0833" gradientUnits="userSpaceOnUse">
<stop stop-color="#FF5E52"/>
<stop offset="1" stop-color="#C92519"/>
</linearGradient>
<linearGradient id="paint3_linear_64_82" x1="8.70438" y1="18.5254" x2="8.70438" y2="27.9999" gradientUnits="userSpaceOnUse">
<stop stop-color="#BD0D00"/>
<stop offset="1" stop-color="#C92519"/>
</linearGradient>
</defs>
</svg>
