<svg width="87" height="25" viewBox="0 0 87 25" fill="none" xmlns="http://www.w3.org/2000/svg">
<path fill-rule="evenodd" clip-rule="evenodd" d="M78.2852 1.47282H82.4364L84.2001 1.28223C83.5951 1.70382 82.3872 3.78325 82.0672 4.49513C81.8317 5.01349 81.6196 5.64588 81.4312 6.39406C81.2425 7.14225 81.1482 7.75693 81.1482 8.2362H79.4397C79.4908 6.73968 79.9819 5.18432 80.9185 3.56821C81.5234 2.56663 82.03 1.86763 82.4364 1.47282H78.2852Z" fill="white"/>
<path fill-rule="evenodd" clip-rule="evenodd" d="M78.2852 1.4728C79.1074 1.4728 83.759 1.71229 84.2001 1.2822V0H78.2967L78.2852 1.4728Z" fill="white"/>
<path d="M84.8157 3.47803V3.84782H84.1909V5.56641H83.7517V3.84782H83.124V3.47803H84.8157Z" fill="white"/>
<path d="M85.0693 5.56641V3.47803H85.5014V4.27428H86.3175V3.47803H86.7511V5.56641H86.3175V4.63415H85.5014V5.56641H85.0693Z" fill="white"/>
<path d="M52.0879 11.7934V8.89804H54.2742V4.46631H58.3514V8.89804H60.8922V11.7934H58.3514V20.1252C58.3514 20.7703 58.4351 21.1741 58.5976 21.3367C58.7599 21.4941 59.2575 21.573 60.0896 21.573C60.2127 21.573 60.3456 21.5678 60.4835 21.558C60.6214 21.5482 60.7593 21.5336 60.8922 21.514V24.5865L58.947 24.6751C57.0021 24.7441 55.6774 24.4042 54.9684 23.6657C54.5056 23.1929 54.2742 22.464 54.2742 21.4841V11.7934H52.0879V11.7934Z" fill="white"/>
<path d="M50.7635 16.6285C50.7635 18.9329 50.0987 20.9077 48.7741 22.5424C47.4448 24.1821 45.4308 24.9995 42.7273 24.9995C40.0239 24.9995 38.01 24.1821 36.6803 22.5424C35.3557 20.9077 34.6909 18.9329 34.6909 16.6285C34.6909 14.3635 35.3557 12.3987 36.6803 10.7391C38.01 9.07991 40.0239 8.24756 42.7273 8.24756C45.4308 8.24756 47.4448 9.07991 48.7741 10.7391C50.0987 12.3987 50.7635 14.3635 50.7635 16.6285ZM42.7224 21.5724C43.919 21.5724 44.8396 21.144 45.4849 20.2921C46.1299 19.4353 46.4499 18.2192 46.4499 16.6433C46.4499 15.0726 46.1299 13.8561 45.4849 13.0094C44.8396 12.1573 43.919 11.7339 42.7224 11.7339C41.5209 11.7339 40.5951 12.1573 39.945 13.0094C39.3001 13.8561 38.9751 15.0726 38.9751 16.6433C38.9751 18.2192 39.3001 19.4353 39.945 20.2921C40.5951 21.144 41.5209 21.5724 42.7224 21.5724Z" fill="white"/>
<path d="M28.9194 8.71973H33.3364L27.6541 24.4673H23.3209L17.6826 8.71973H22.2966L25.5711 20.3358L28.9194 8.71973Z" fill="white"/>
<path d="M15.5949 6.9475H4.34331V11.4977H14.6741V15.1906H4.34331V20.6565H16.1169V24.4678H0V3.19531H15.5949V6.9475Z" fill="white"/>
<path fill-rule="evenodd" clip-rule="evenodd" d="M69.0521 7.60878L78.8405 13.2601C79.5089 13.6458 79.74 14.5083 79.354 15.1767L77.8793 17.731H62.3413L67.1355 8.1223C67.4799 7.43165 68.3837 7.22305 69.0521 7.60878V7.60878Z" fill="white"/>
<path d="M77.8793 16.541C77.8859 16.9063 77.886 17.3031 77.8799 17.732H77.8793V16.541ZM66.4164 17.732C66.4806 19.3177 67.027 20.4305 68.0611 21.0657C68.6865 21.4646 69.4399 21.6615 70.3263 21.6615C71.2618 21.6615 72.0201 21.4202 72.6061 20.9426C72.9261 20.6816 73.2067 20.3223 73.4531 19.8593H77.6732C77.5647 20.7949 77.0525 21.7404 76.1516 22.7055C74.7432 24.2369 72.7736 25.0001 70.2426 25.0001C68.1497 25.0001 66.3033 24.3552 64.7078 23.065C63.2909 21.9228 62.5034 20.144 62.3413 17.732H66.4164Z" fill="white"/>
</svg>
