<svg width="98" height="28" viewBox="0 0 98 28" fill="none" xmlns="http://www.w3.org/2000/svg">
<path fill-rule="evenodd" clip-rule="evenodd" d="M87.6821 1.64951H92.3317L94.307 1.43604C93.6294 1.90824 92.2766 4.23727 91.9182 5.0346C91.6544 5.61517 91.4168 6.32347 91.2058 7.16147C90.9944 7.99946 90.8888 8.68792 90.8888 9.22472H88.9753C89.0325 7.54857 89.5826 5.80652 90.6316 3.99641C91.3091 2.87461 91.8765 2.09171 92.3317 1.64951H87.6821Z" fill="url(#paint0_linear_64_64)"/>
<path fill-rule="evenodd" clip-rule="evenodd" d="M87.6821 1.64958C88.6031 1.64958 93.813 1.91782 94.307 1.43611V0H87.6951L87.6821 1.64958Z" fill="url(#paint1_linear_64_64)"/>
<path d="M94.9968 3.89502V4.3092H94.297V6.23408H93.805V4.3092H93.1021V3.89502H94.9968Z" fill="#F65549"/>
<path d="M95.2808 6.23408V3.89502H95.7648V4.78685H96.6789V3.89502H97.1645V6.23408H96.6789V5.18991H95.7648V6.23408H95.2808Z" fill="#F65549"/>
<path d="M58.3403 13.2081V9.96515H60.7891V5.00146H65.3556V9.96515H68.2015V13.2081H65.3556V22.5399C65.3556 23.2625 65.4494 23.7147 65.6314 23.8969C65.8132 24.0731 66.3705 24.1615 67.3025 24.1615C67.4404 24.1615 67.5892 24.1558 67.7437 24.1448C67.8981 24.1338 68.0526 24.1174 68.2015 24.0954V27.5368L66.0228 27.6359C63.8444 27.7133 62.3608 27.3326 61.5665 26.5055C61.0483 25.9759 60.7891 25.1595 60.7891 24.062V13.2081H58.3403V13.2081Z" fill="black"/>
<path d="M56.8568 18.6238C56.8568 21.2048 56.1123 23.4166 54.6286 25.2475C53.1397 27.084 50.884 27.9996 47.856 27.9996C44.8282 27.9996 42.5724 27.084 41.0832 25.2475C39.5995 23.4166 38.855 21.2048 38.855 18.6238C38.855 16.0868 39.5995 13.8862 41.0832 12.0274C42.5724 10.1691 44.8282 9.23682 47.856 9.23682C50.884 9.23682 53.1397 10.1691 54.6286 12.0274C56.1123 13.8862 56.8568 16.0868 56.8568 18.6238ZM47.8506 24.1611C49.1908 24.1611 50.2219 23.6812 50.9446 22.7272C51.667 21.7675 52.0254 20.4053 52.0254 18.6403C52.0254 16.8811 51.667 15.5186 50.9446 14.5702C50.2219 13.6158 49.1908 13.1417 47.8506 13.1417C46.5048 13.1417 45.4679 13.6158 44.7398 14.5702C44.0174 15.5186 43.6534 16.8811 43.6534 18.6403C43.6534 20.4053 44.0174 21.7675 44.7398 22.7272C45.4679 23.6812 46.5048 24.1611 47.8506 24.1611Z" fill="black"/>
<path d="M32.3908 9.7666H37.3379L30.9735 27.4044H26.1202L19.8052 9.7666H24.973L28.6406 22.777L32.3908 9.7666Z" fill="black"/>
<path d="M17.4668 7.7812H4.86465V12.8775H16.4355V17.0137H4.86465V23.1357H18.0515V27.4046H0V3.57861H17.4668V7.7812Z" fill="black"/>
<path fill-rule="evenodd" clip-rule="evenodd" d="M77.3415 8.52193L88.3048 14.8516C89.0534 15.2836 89.3123 16.2496 88.88 16.9983L87.2282 19.8592H69.8252L75.1948 9.0971C75.5806 8.32354 76.5929 8.0899 77.3415 8.52193V8.52193Z" fill="url(#paint2_linear_64_64)"/>
<path d="M87.2282 18.5254C87.2356 18.9345 87.2358 19.379 87.2289 19.8594H87.2282V18.5254ZM74.3895 19.8594C74.4613 21.6354 75.0733 22.8818 76.2315 23.5932C76.932 24.04 77.7759 24.2605 78.7686 24.2605C79.8165 24.2605 80.6658 23.9903 81.3221 23.4553C81.6805 23.163 81.9949 22.7606 82.2708 22.242H86.9974C86.8759 23.2899 86.3022 24.3489 85.2932 25.4298C83.7158 27.145 81.5097 27.9999 78.6749 27.9999C76.3307 27.9999 74.2627 27.2775 72.4758 25.8325C70.8888 24.5532 70.0067 22.5609 69.8252 19.8594H74.3895Z" fill="url(#paint3_linear_64_64)"/>
<defs>
<linearGradient id="paint0_linear_64_64" x1="89.6816" y1="1.73198" x2="92.3074" y2="8.92878" gradientUnits="userSpaceOnUse">
<stop stop-color="#BD0D00"/>
<stop offset="1" stop-color="#C92519"/>
</linearGradient>
<linearGradient id="paint1_linear_64_64" x1="87.6821" y1="0.862093" x2="94.307" y2="0.862093" gradientUnits="userSpaceOnUse">
<stop stop-color="#C92519"/>
<stop offset="1" stop-color="#FF5E52"/>
</linearGradient>
<linearGradient id="paint2_linear_64_64" x1="69.8254" y1="14.0832" x2="89.0895" y2="14.0832" gradientUnits="userSpaceOnUse">
<stop stop-color="#FF5E52"/>
<stop offset="1" stop-color="#C92519"/>
</linearGradient>
<linearGradient id="paint3_linear_64_64" x1="78.5296" y1="18.5254" x2="78.5296" y2="27.9999" gradientUnits="userSpaceOnUse">
<stop stop-color="#BD0D00"/>
<stop offset="1" stop-color="#C92519"/>
</linearGradient>
</defs>
</svg>
