<svg width="58" height="42" viewBox="0 0 58 42" fill="none" xmlns="http://www.w3.org/2000/svg">
<path d="M14.1365 19.5324C15.7858 21.0313 18.3443 20.9163 19.851 19.2755C21.3578 17.6347 21.2422 15.0894 19.5928 13.5904C17.9435 12.0914 15.385 12.2064 13.8783 13.8473C12.3715 15.4881 12.4871 18.0334 14.1365 19.5324Z" fill="white"/>
<path d="M3.15649 11.0601C3.15649 9.99314 4.02521 9.11824 5.09769 9.11824C6.17017 9.11824 7.04961 9.99314 7.04961 11.0601C7.04961 14.4423 10.2885 18.262 13.5274 22.0817C17.2382 26.4349 20.9383 30.7987 20.9383 35.5894C20.9383 36.6563 20.0696 37.5312 18.9971 37.5312C17.9246 37.5312 17.0452 36.6563 17.0452 35.5894C17.0452 32.2071 13.8063 28.3874 10.5674 24.5677C6.85656 20.2146 3.15649 15.8507 3.15649 11.0601Z" fill="white"/>
<path d="M10.0845 8.26473C9.66626 8.71285 8.96914 8.74486 8.5187 8.33941C8.05753 7.9233 8.02536 7.22978 8.44362 6.78166C10.8353 4.16763 14.0634 2.78059 17.356 2.63121C20.6378 2.48184 23.9839 3.5808 26.6008 5.96011C29.2176 8.33941 30.6226 11.5509 30.762 14.8265C30.9122 18.0914 29.8075 21.4203 27.4159 24.0236C27.0512 24.4184 26.6437 24.8132 26.204 25.1759C25.775 25.5387 25.3245 25.8695 24.8526 26.1682C24.3378 26.499 23.6514 26.3496 23.319 25.8375C22.9972 25.3253 23.1474 24.6425 23.6622 24.3117C24.0483 24.0663 24.4236 23.7889 24.7776 23.4902C25.1207 23.2127 25.4532 22.8927 25.775 22.5406C27.7591 20.3747 28.6707 17.6219 28.5527 14.9225C28.4347 12.2231 27.2657 9.56641 25.0993 7.59255C22.9329 5.61868 20.1659 4.71177 17.4525 4.82914C14.7284 4.95717 12.0579 6.10948 10.0845 8.26473Z" fill="white"/>
<path d="M11.715 12.4045C11.3718 12.9059 10.6854 13.034 10.1707 12.6925C9.66659 12.3511 9.52716 11.6683 9.87036 11.1668C9.99906 10.9854 10.1278 10.8147 10.2565 10.644C10.3959 10.4733 10.5353 10.3132 10.6854 10.1425C12.3371 8.33937 14.5786 7.36844 16.863 7.27241C19.1473 7.16572 21.4639 7.92326 23.2764 9.57703C25.0889 11.2308 26.0649 13.4607 26.1721 15.7227C26.2686 17.9953 25.5072 20.2999 23.8448 22.1031C23.2979 22.7006 22.6758 23.2127 22.0002 23.6395C21.3138 24.0663 20.5845 24.397 19.8123 24.6211C19.2224 24.8025 18.6004 24.4717 18.4288 23.8849C18.2572 23.2981 18.5897 22.6792 19.1795 22.5085C19.7587 22.3378 20.3164 22.0817 20.8204 21.7723C21.3352 21.4522 21.8071 21.0681 22.2039 20.62C23.4587 19.265 24.0271 17.5258 23.9521 15.8187C23.877 14.1223 23.1477 12.4471 21.7857 11.2095C20.4129 9.97181 18.6755 9.39565 16.9595 9.47034C15.2542 9.54503 13.5704 10.2706 12.3263 11.6363C12.2191 11.7536 12.1119 11.871 12.0046 12.0097C11.9081 12.1271 11.8116 12.2658 11.715 12.4045Z" fill="white"/>
<path d="M23.4425 34V28.9091H25.451C25.8371 28.9091 26.1661 28.9828 26.4379 29.1303C26.7096 29.2762 26.9168 29.4792 27.0593 29.7393C27.2035 29.9979 27.2756 30.2962 27.2756 30.6342C27.2756 30.9723 27.2027 31.2706 27.0568 31.5291C26.911 31.7876 26.6997 31.989 26.4229 32.1332C26.1478 32.2773 25.8147 32.3494 25.4237 32.3494H24.1435V31.4869H25.2496C25.4568 31.4869 25.6275 31.4512 25.7617 31.38C25.8976 31.3071 25.9987 31.2068 26.065 31.0792C26.1329 30.9499 26.1669 30.8016 26.1669 30.6342C26.1669 30.4652 26.1329 30.3177 26.065 30.1918C25.9987 30.0642 25.8976 29.9656 25.7617 29.896C25.6258 29.8247 25.4535 29.7891 25.2447 29.7891H24.5188V34H23.4425ZM29.6333 34.0746C29.2406 34.0746 28.9025 33.995 28.6191 33.8359C28.3374 33.6752 28.1203 33.4482 27.9679 33.1548C27.8154 32.8598 27.7392 32.511 27.7392 32.1083C27.7392 31.7156 27.8154 31.3709 27.9679 31.0742C28.1203 30.7776 28.3349 30.5464 28.6117 30.3807C28.8901 30.215 29.2166 30.1321 29.5911 30.1321C29.843 30.1321 30.0775 30.1727 30.2946 30.2539C30.5133 30.3335 30.7039 30.4536 30.8663 30.6143C31.0304 30.7751 31.158 30.9773 31.2491 31.2209C31.3403 31.4628 31.3858 31.7462 31.3858 32.071V32.3619H28.1618V31.7056H30.389C30.389 31.5531 30.3559 31.4181 30.2896 31.3004C30.2233 31.1828 30.1313 31.0908 30.0137 31.0245C29.8977 30.9566 29.7626 30.9226 29.6085 30.9226C29.4477 30.9226 29.3052 30.9599 29.1809 31.0344C29.0583 31.1074 28.9622 31.206 28.8926 31.3303C28.823 31.4529 28.7873 31.5896 28.7857 31.7404V32.3643C28.7857 32.5533 28.8205 32.7165 28.8901 32.854C28.9614 32.9916 29.0616 33.0977 29.1909 33.1722C29.3201 33.2468 29.4734 33.2841 29.6507 33.2841C29.7684 33.2841 29.8761 33.2675 29.9739 33.2344C30.0717 33.2012 30.1554 33.1515 30.225 33.0852C30.2946 33.0189 30.3476 32.9377 30.3841 32.8416L31.3635 32.9062C31.3137 33.1416 31.2118 33.3471 31.0577 33.5227C30.9052 33.6967 30.708 33.8326 30.4661 33.9304C30.2258 34.0265 29.9482 34.0746 29.6333 34.0746ZM32.0769 30.1818H33.1358V34.1889C33.1358 34.4839 33.0778 34.7225 32.9618 34.9048C32.8458 35.0871 32.6793 35.2205 32.4622 35.305C32.2467 35.3896 31.9891 35.4318 31.6891 35.4318C31.6526 35.4318 31.6178 35.431 31.5847 35.4293C31.5499 35.4293 31.5134 35.4285 31.4753 35.4268V34.5991C31.5035 34.6007 31.5283 34.6016 31.5499 34.6016C31.5698 34.6032 31.5913 34.604 31.6145 34.604C31.7852 34.604 31.9045 34.5676 31.9725 34.4947C32.0421 34.4234 32.0769 34.3157 32.0769 34.1715V30.1818ZM32.6039 29.6896C32.4481 29.6896 32.3139 29.6374 32.2012 29.533C32.0885 29.427 32.0321 29.3002 32.0321 29.1527C32.0321 29.0069 32.0885 28.8817 32.2012 28.7773C32.3139 28.6713 32.4481 28.6183 32.6039 28.6183C32.763 28.6183 32.898 28.6713 33.0091 28.7773C33.1217 28.8817 33.1781 29.0069 33.1781 29.1527C33.1781 29.3002 33.1217 29.427 33.0091 29.533C32.898 29.6374 32.763 29.6896 32.6039 29.6896ZM36.4326 32.3743V30.1818H37.4916V34H36.4749V33.3065H36.4351C36.3489 33.5302 36.2056 33.71 36.0051 33.8459C35.8062 33.9818 35.5634 34.0497 35.2767 34.0497C35.0215 34.0497 34.797 33.9917 34.6031 33.8757C34.4092 33.7597 34.2575 33.5948 34.1482 33.381C34.0405 33.1673 33.9858 32.9112 33.9841 32.6129V30.1818H35.0431V32.424C35.0447 32.6494 35.1052 32.8275 35.2245 32.9585C35.3438 33.0894 35.5038 33.1548 35.7043 33.1548C35.8319 33.1548 35.9512 33.1258 36.0622 33.0678C36.1733 33.0082 36.2628 32.9203 36.3307 32.8043C36.4003 32.6883 36.4343 32.545 36.4326 32.3743ZM39.4274 34.0721C39.1838 34.0721 38.9667 34.0298 38.7761 33.9453C38.5855 33.8591 38.4347 33.7324 38.3237 33.565C38.2143 33.396 38.1596 33.1855 38.1596 32.9336C38.1596 32.7215 38.1986 32.5433 38.2765 32.3991C38.3543 32.255 38.4604 32.139 38.5946 32.0511C38.7289 31.9633 38.8813 31.897 39.052 31.8523C39.2244 31.8075 39.405 31.776 39.5939 31.7578C39.816 31.7346 39.995 31.7131 40.1309 31.6932C40.2667 31.6716 40.3654 31.6402 40.4267 31.5987C40.488 31.5573 40.5186 31.496 40.5186 31.4148V31.3999C40.5186 31.2424 40.4689 31.1206 40.3695 31.0344C40.2717 30.9483 40.1325 30.9052 39.9519 30.9052C39.7613 30.9052 39.6097 30.9474 39.497 31.032C39.3843 31.1148 39.3097 31.2192 39.2733 31.3452L38.2939 31.2656C38.3436 31.0336 38.4413 30.8331 38.5872 30.6641C38.733 30.4934 38.9211 30.3625 39.1515 30.2713C39.3835 30.1785 39.6519 30.1321 39.9569 30.1321C40.169 30.1321 40.372 30.157 40.5659 30.2067C40.7614 30.2564 40.9346 30.3335 41.0854 30.4379C41.2379 30.5423 41.358 30.6765 41.4458 30.8406C41.5337 31.003 41.5776 31.1977 41.5776 31.4247V34H40.5733V33.4705H40.5435C40.4822 33.5898 40.4002 33.6951 40.2974 33.7862C40.1947 33.8757 40.0712 33.9461 39.927 33.9975C39.7828 34.0472 39.6163 34.0721 39.4274 34.0721ZM39.7306 33.3413C39.8864 33.3413 40.024 33.3106 40.1433 33.2493C40.2626 33.1863 40.3562 33.1018 40.4242 32.9957C40.4921 32.8897 40.5261 32.7695 40.5261 32.6353V32.2301C40.493 32.2517 40.4474 32.2715 40.3894 32.2898C40.333 32.3063 40.2692 32.3221 40.198 32.337C40.1267 32.3503 40.0555 32.3627 39.9842 32.3743C39.9129 32.3842 39.8483 32.3933 39.7903 32.4016C39.666 32.4199 39.5575 32.4489 39.4647 32.4886C39.3719 32.5284 39.2998 32.5823 39.2484 32.6502C39.197 32.7165 39.1713 32.7994 39.1713 32.8988C39.1713 33.043 39.2235 33.1532 39.3279 33.2294C39.434 33.304 39.5682 33.3413 39.7306 33.3413ZM43.4581 31.7926V34H42.3991V30.1818H43.4084V30.8555H43.4531C43.5376 30.6334 43.6793 30.4577 43.8782 30.3285C44.0771 30.1976 44.3182 30.1321 44.6016 30.1321C44.8667 30.1321 45.0979 30.1901 45.2951 30.3061C45.4923 30.4221 45.6456 30.5878 45.755 30.8033C45.8643 31.017 45.919 31.2723 45.919 31.5689V34H44.8601V31.7578C44.8617 31.5241 44.8021 31.3419 44.6811 31.2109C44.5601 31.0784 44.3936 31.0121 44.1815 31.0121C44.0389 31.0121 43.913 31.0427 43.8036 31.104C43.6959 31.1654 43.6114 31.2549 43.5501 31.3725C43.4904 31.4885 43.4598 31.6286 43.4581 31.7926ZM48.4738 35.5114C48.1308 35.5114 47.8366 35.4641 47.5914 35.3697C47.3477 35.2769 47.1539 35.1501 47.0097 34.9893C46.8655 34.8286 46.7719 34.648 46.7288 34.4474L47.7082 34.3157C47.738 34.3919 47.7852 34.4632 47.8499 34.5295C47.9145 34.5958 47.9999 34.6488 48.1059 34.6886C48.2136 34.73 48.3445 34.7507 48.4987 34.7507C48.729 34.7507 48.9188 34.6944 49.0679 34.5817C49.2187 34.4706 49.2941 34.2842 49.2941 34.0224V33.3239H49.2494C49.203 33.4299 49.1334 33.5302 49.0406 33.6246C48.9478 33.7191 48.8285 33.7962 48.6826 33.8558C48.5368 33.9155 48.3628 33.9453 48.1606 33.9453C47.8739 33.9453 47.6129 33.879 47.3776 33.7464C47.1439 33.6122 46.9575 33.4076 46.8183 33.1325C46.6807 32.8557 46.6119 32.506 46.6119 32.0835C46.6119 31.6509 46.6824 31.2897 46.8232 30.9996C46.9641 30.7096 47.1514 30.4925 47.385 30.3484C47.6204 30.2042 47.878 30.1321 48.1581 30.1321C48.3719 30.1321 48.5509 30.1686 48.695 30.2415C48.8392 30.3127 48.9552 30.4022 49.0431 30.5099C49.1325 30.616 49.2013 30.7204 49.2494 30.8232H49.2892V30.1818H50.3406V34.0373C50.3406 34.3621 50.2611 34.6339 50.102 34.8526C49.9429 35.0714 49.7225 35.2354 49.4408 35.3448C49.1607 35.4558 48.8384 35.5114 48.4738 35.5114ZM48.4962 33.1499C48.6669 33.1499 48.811 33.1076 48.9287 33.0231C49.048 32.9369 49.1392 32.8143 49.2021 32.6552C49.2668 32.4944 49.2991 32.3022 49.2991 32.0785C49.2991 31.8548 49.2676 31.6609 49.2046 31.4968C49.1417 31.3311 49.0505 31.2027 48.9312 31.1115C48.8119 31.0204 48.6669 30.9748 48.4962 30.9748C48.3222 30.9748 48.1755 31.022 48.0562 31.1165C47.9369 31.2093 47.8466 31.3385 47.7852 31.5043C47.7239 31.67 47.6933 31.8614 47.6933 32.0785C47.6933 32.2989 47.7239 32.4895 47.7852 32.6502C47.8482 32.8093 47.9385 32.9328 48.0562 33.0206C48.1755 33.1068 48.3222 33.1499 48.4962 33.1499ZM23.946 38H23.2397V35.8182H23.9684C24.1822 35.8182 24.3658 35.8619 24.5192 35.9492C24.6726 36.0359 24.7901 36.1605 24.8718 36.3232C24.9542 36.4851 24.9954 36.6793 24.9954 36.9059C24.9954 37.1332 24.9538 37.3285 24.8707 37.4918C24.7884 37.6552 24.669 37.7809 24.5128 37.869C24.3565 37.9563 24.1676 38 23.946 38ZM23.5689 37.7124H23.9279C24.0941 37.7124 24.2322 37.6811 24.3423 37.6186C24.4524 37.5554 24.5348 37.4641 24.5895 37.3448C24.6442 37.2248 24.6715 37.0785 24.6715 36.9059C24.6715 36.7347 24.6442 36.5895 24.5895 36.4702C24.5355 36.3509 24.4549 36.2603 24.3477 36.1985C24.2404 36.1367 24.1072 36.1058 23.9482 36.1058H23.5689V37.7124ZM25.8554 38.0362C25.7517 38.0362 25.6579 38.017 25.5741 37.9787C25.4903 37.9396 25.4239 37.8832 25.3749 37.8093C25.3266 37.7354 25.3025 37.6449 25.3025 37.5376C25.3025 37.4453 25.3202 37.3693 25.3557 37.3097C25.3912 37.25 25.4392 37.2028 25.4996 37.168C25.5599 37.1332 25.6274 37.1069 25.702 37.0891C25.7765 37.0714 25.8525 37.0579 25.93 37.0487C26.028 37.0373 26.1075 37.0281 26.1686 37.021C26.2297 37.0131 26.2741 37.0007 26.3018 36.9837C26.3295 36.9666 26.3433 36.9389 26.3433 36.9006V36.8931C26.3433 36.8001 26.317 36.728 26.2645 36.6768C26.2126 36.6257 26.1352 36.6001 26.0322 36.6001C25.925 36.6001 25.8405 36.6239 25.7787 36.6715C25.7176 36.7184 25.6753 36.7706 25.6519 36.8281L25.3525 36.7599C25.3881 36.6605 25.4399 36.5803 25.5081 36.5192C25.577 36.4574 25.6562 36.4126 25.7456 36.3849C25.8351 36.3565 25.9292 36.3423 26.028 36.3423C26.0933 36.3423 26.1626 36.3501 26.2357 36.3658C26.3096 36.3807 26.3785 36.4084 26.4424 36.4489C26.507 36.4893 26.5599 36.5472 26.6011 36.6225C26.6423 36.6971 26.6629 36.794 26.6629 36.9134V38H26.3518V37.7763H26.339C26.3184 37.8175 26.2876 37.858 26.2464 37.8977C26.2052 37.9375 26.1523 37.9705 26.0876 37.9968C26.023 38.0231 25.9456 38.0362 25.8554 38.0362ZM25.9246 37.7805C26.0127 37.7805 26.088 37.7631 26.1505 37.7283C26.2137 37.6935 26.2616 37.6481 26.2943 37.592C26.3277 37.5352 26.3444 37.4744 26.3444 37.4098V37.1989C26.333 37.2102 26.311 37.2209 26.2783 37.2308C26.2464 37.2401 26.2098 37.2482 26.1686 37.2553C26.1274 37.2617 26.0873 37.2678 26.0482 37.2734C26.0091 37.2784 25.9765 37.2827 25.9502 37.2862C25.8884 37.294 25.8319 37.3072 25.7808 37.3256C25.7304 37.3441 25.6899 37.3707 25.6594 37.4055C25.6295 37.4396 25.6146 37.4851 25.6146 37.5419C25.6146 37.6207 25.6437 37.6804 25.702 37.7209C25.7602 37.7607 25.8344 37.7805 25.9246 37.7805ZM27.0872 38V36.3636H27.3951V36.6236H27.4121C27.4419 36.5355 27.4945 36.4663 27.5698 36.4158C27.6458 36.3647 27.7317 36.3391 27.8276 36.3391C27.8475 36.3391 27.8709 36.3398 27.8979 36.3413C27.9256 36.3427 27.9473 36.3445 27.9629 36.3466V36.6513C27.9501 36.6477 27.9274 36.6438 27.8947 36.6396C27.862 36.6346 27.8294 36.6321 27.7967 36.6321C27.7214 36.6321 27.6543 36.6481 27.5953 36.68C27.5371 36.7113 27.4909 36.755 27.4569 36.8111C27.4228 36.8665 27.4057 36.9297 27.4057 37.0007V38H27.0872ZM28.2385 38V36.3636H28.5571V38H28.2385ZM28.3994 36.1112C28.344 36.1112 28.2964 36.0927 28.2567 36.0558C28.2176 36.0181 28.1981 35.9734 28.1981 35.9215C28.1981 35.869 28.2176 35.8242 28.2567 35.7873C28.2964 35.7496 28.344 35.7308 28.3994 35.7308C28.4548 35.7308 28.502 35.7496 28.5411 35.7873C28.5809 35.8242 28.6008 35.869 28.6008 35.9215C28.6008 35.9734 28.5809 36.0181 28.5411 36.0558C28.502 36.0927 28.4548 36.1112 28.3994 36.1112ZM29.3042 37.0284V38H28.9856V36.3636H29.2914V36.63H29.3116C29.3493 36.5433 29.4082 36.4737 29.4885 36.4212C29.5694 36.3686 29.6713 36.3423 29.7942 36.3423C29.9057 36.3423 30.0034 36.3658 30.0872 36.4126C30.171 36.4588 30.236 36.5277 30.2821 36.6193C30.3283 36.7109 30.3514 36.8242 30.3514 36.9592V38H30.0328V36.9975C30.0328 36.8789 30.002 36.7862 29.9402 36.7195C29.8784 36.652 29.7935 36.6183 29.6855 36.6183C29.6117 36.6183 29.546 36.6342 29.4885 36.6662C29.4316 36.6982 29.3865 36.745 29.3532 36.8068C29.3205 36.8679 29.3042 36.9418 29.3042 37.0284ZM31.4647 38.6477C31.3347 38.6477 31.2228 38.6307 31.1291 38.5966C31.036 38.5625 30.96 38.5174 30.9011 38.4613C30.8422 38.4052 30.7981 38.3438 30.769 38.277L31.0428 38.1641C31.062 38.1953 31.0875 38.2283 31.1195 38.2631C31.1522 38.2987 31.1962 38.3288 31.2516 38.3537C31.3077 38.3786 31.3798 38.391 31.4679 38.391C31.5886 38.391 31.6884 38.3615 31.7672 38.3026C31.8461 38.2443 31.8855 38.1513 31.8855 38.0234V37.7017H31.8652C31.8461 37.7365 31.8184 37.7752 31.7821 37.8178C31.7466 37.8604 31.6976 37.8974 31.6351 37.9286C31.5726 37.9599 31.4913 37.9755 31.3912 37.9755C31.2619 37.9755 31.1454 37.9453 31.0417 37.8849C30.9387 37.8239 30.8571 37.734 30.7967 37.6154C30.737 37.4961 30.7072 37.3494 30.7072 37.1754C30.7072 37.0014 30.7367 36.8523 30.7956 36.728C30.8553 36.6037 30.937 36.5085 31.0407 36.4425C31.1444 36.3757 31.2619 36.3423 31.3933 36.3423C31.4949 36.3423 31.5769 36.3594 31.6394 36.3935C31.7019 36.4268 31.7505 36.4659 31.7853 36.5107C31.8208 36.5554 31.8482 36.5948 31.8674 36.6289H31.8908V36.3636H32.2029V38.0362C32.2029 38.1768 32.1703 38.2923 32.1049 38.3825C32.0396 38.4727 31.9512 38.5394 31.8397 38.5827C31.7289 38.6261 31.6039 38.6477 31.4647 38.6477ZM31.4615 37.7113C31.5531 37.7113 31.6305 37.69 31.6937 37.6474C31.7576 37.604 31.8059 37.5423 31.8386 37.462C31.872 37.381 31.8887 37.2841 31.8887 37.1712C31.8887 37.0611 31.8723 36.9641 31.8397 36.8803C31.807 36.7965 31.7591 36.7312 31.6958 36.6843C31.6326 36.6367 31.5545 36.6129 31.4615 36.6129C31.3656 36.6129 31.2857 36.6378 31.2218 36.6875C31.1578 36.7365 31.1096 36.8033 31.0769 36.8878C31.0449 36.9723 31.0289 37.0668 31.0289 37.1712C31.0289 37.2784 31.0453 37.3725 31.0779 37.4535C31.1106 37.5344 31.1589 37.5977 31.2228 37.6431C31.2875 37.6886 31.367 37.7113 31.4615 37.7113Z" fill="white"/>
</svg>
