<svg width="80" height="80" viewBox="0 0 80 80" fill="none" xmlns="http://www.w3.org/2000/svg">
<rect width="80" height="80" rx="40" fill="#FF1221"/>
<g clip-path="url(#clip0_637_286)">
<path d="M37.7781 62.8C32.8844 56.7813 22 42.1938 22 34C22 24.0587 30.0587 16 40 16C49.9375 16 58 24.0587 58 34C58 42.1938 47.0312 56.7813 42.2219 62.8C41.0687 64.2344 38.9313 64.2344 37.7781 62.8V62.8ZM40 40C43.3094 40 46 37.3094 46 34C46 30.6906 43.3094 28 40 28C36.6906 28 34 30.6906 34 34C34 37.3094 36.6906 40 40 40Z" fill="white"/>
</g>
<defs>
<clipPath id="clip0_637_286">
<rect width="36" height="48" fill="white" transform="translate(22 16)"/>
</clipPath>
</defs>
</svg>
