<svg width="80" height="80" viewBox="0 0 80 80" fill="none" xmlns="http://www.w3.org/2000/svg">
<rect width="80" height="80" rx="40" fill="#FF1221"/>
<g clip-path="url(#clip0_637_276)">
<path d="M55 35.5C55 39.8031 53.6031 43.7781 51.1656 47.0031L63.1188 58.8812C64.2906 60.0531 64.2906 61.9469 63.1188 63.1188C61.9469 64.2906 60.0531 64.2906 58.8812 63.1188L47.0031 51.1656C43.7781 53.6031 39.8031 55 35.5 55C24.73 55 16 46.2719 16 35.5C16 24.73 24.73 16 35.5 16C46.2719 16 55 24.73 55 35.5ZM25.75 42.25C25.75 43.4969 26.7531 44.5 28 44.5C29.2469 44.5 30.25 43.4969 30.25 42.25V36.25C30.25 35.0031 29.2469 34 28 34C26.7531 34 25.75 35.0031 25.75 36.25V42.25ZM33.25 42.25C33.25 43.4969 34.2531 44.5 35.5 44.5C36.7469 44.5 37.75 43.4969 37.75 42.25V27.25C37.75 26.0031 36.7469 25 35.5 25C34.2531 25 33.25 26.0031 33.25 27.25V42.25ZM40.75 42.25C40.75 43.4969 41.7531 44.5 43 44.5C44.2469 44.5 45.25 43.4969 45.25 42.25V33.25C45.25 32.0031 44.2469 31 43 31C41.7531 31 40.75 32.0031 40.75 33.25V42.25Z" fill="white"/>
</g>
<defs>
<clipPath id="clip0_637_276">
<rect width="48" height="48" fill="white" transform="translate(16 16)"/>
</clipPath>
</defs>
</svg>
